<svg width="64" height="12" viewBox="0 0 64 12" fill="none" xmlns="http://www.w3.org/2000/svg">
<path d="M0.232955 11H1.46591V6.44602H6.89489V11H8.12784V0.818182H6.89489V5.35227H1.46591V0.818182H0.232955V11ZM12.6843 11.179C14.0167 11.179 14.7127 10.4631 14.9513 9.96591H15.011V11H16.1843V5.96875C16.1843 3.54261 14.3349 3.2642 13.3604 3.2642C12.207 3.2642 10.8945 3.66193 10.2979 5.05398L11.4116 5.4517C11.6701 4.89489 12.2816 4.2983 13.4002 4.2983C14.479 4.2983 15.011 4.87003 15.011 5.84943V5.8892C15.011 6.45597 14.4343 6.40625 13.0423 6.58523C11.6254 6.76918 10.0792 7.08239 10.0792 8.83239C10.0792 10.3239 11.2326 11.179 12.6843 11.179ZM12.8633 10.125C11.9286 10.125 11.2525 9.70739 11.2525 8.89205C11.2525 7.99716 12.0678 7.71875 12.9826 7.59943C13.4798 7.53977 14.8121 7.40057 15.011 7.16193V8.2358C15.011 9.19034 14.2553 10.125 12.8633 10.125ZM17.8485 9.05114C17.8883 10.304 19.0865 11.1591 20.7122 11.1591C22.3826 11.1591 23.5957 10.2642 23.5957 8.87216C23.5957 7.91761 23.024 7.14205 22.1639 7.08239V7.00284C22.8897 6.77912 23.4366 6.25213 23.4366 5.39205C23.4366 4.18395 22.4025 3.2642 20.7917 3.2642C19.2008 3.2642 18.0673 4.1392 18.0275 5.37216H19.2605C19.2953 4.74077 19.9565 4.2983 20.8514 4.2983C21.7413 4.2983 22.2434 4.75071 22.2434 5.43182C22.2434 6.06818 21.8059 6.54545 20.8713 6.54545H19.5588V7.59943H20.8713C21.8059 7.59943 22.4025 8.11151 22.4025 8.87216C22.4025 9.74219 21.6319 10.1051 20.6923 10.1051C19.7725 10.1051 19.1561 9.74219 19.1014 9.05114H17.8485ZM25.2438 11H28.8432C30.3944 11 31.329 10.125 31.329 8.9517C31.329 7.75355 30.4192 7.10724 29.579 6.98295C30.4391 6.80398 31.0506 6.32173 31.0506 5.39205C31.0506 4.17401 30.0066 3.36364 28.3659 3.36364H25.2438V11ZM26.3574 9.92614V7.57955H28.8432C29.6486 7.57955 30.1358 8.06179 30.1358 8.85227C30.1358 9.51847 29.6486 9.92614 28.8432 9.92614H26.3574ZM26.3574 6.56534V4.4375H28.3659C29.3056 4.4375 29.8773 4.83026 29.8773 5.47159C29.8773 6.1527 29.3056 6.56534 28.3659 6.56534H26.3574ZM35.3523 11.179C36.6847 11.179 37.3807 10.4631 37.6193 9.96591H37.679V11H38.8523V5.96875C38.8523 3.54261 37.0028 3.2642 36.0284 3.2642C34.875 3.2642 33.5625 3.66193 32.9659 5.05398L34.0795 5.4517C34.3381 4.89489 34.9496 4.2983 36.0682 4.2983C37.147 4.2983 37.679 4.87003 37.679 5.84943V5.8892C37.679 6.45597 37.1023 6.40625 35.7102 6.58523C34.2933 6.76918 32.7472 7.08239 32.7472 8.83239C32.7472 10.3239 33.9006 11.179 35.3523 11.179ZM35.5312 10.125C34.5966 10.125 33.9205 9.70739 33.9205 8.89205C33.9205 7.99716 34.7358 7.71875 35.6506 7.59943C36.1477 7.53977 37.4801 7.40057 37.679 7.16193V8.2358C37.679 9.19034 36.9233 10.125 35.5312 10.125ZM42.1671 3.36364H40.9938V11H42.1671V7.73864H45.8262V11H46.9995V3.36364H45.8262V6.64489H42.1671V3.36364ZM50.3155 9.26989V3.36364H49.1422V11H50.5144L54.1735 5.09375V11H55.3468V3.36364H53.9945L50.3155 9.26989ZM60.6974 11.1591C62.2486 11.1591 63.3821 10.3835 63.7401 9.23011L62.6065 8.91193C62.3082 9.70739 61.6172 10.1051 60.6974 10.1051C59.3203 10.1051 58.3707 9.2152 58.3161 7.57955H63.8594V7.08239C63.8594 4.23864 62.169 3.2642 60.5781 3.2642C58.5099 3.2642 57.1378 4.89489 57.1378 7.24148C57.1378 9.58807 58.4901 11.1591 60.6974 11.1591ZM58.3161 6.56534C58.3956 5.37713 59.2358 4.31818 60.5781 4.31818C61.8509 4.31818 62.6662 5.27273 62.6662 6.56534H58.3161Z" fill="#C4C4C4"/>
</svg>
