<svg width="139" height="14" viewBox="0 0 139 14" fill="none" xmlns="http://www.w3.org/2000/svg">
<path d="M9.42614 4C9.0483 1.91193 7.37784 0.678977 5.32955 0.678977C2.72443 0.678977 0.835227 2.6875 0.835227 5.90909C0.835227 9.13068 2.72443 11.1392 5.32955 11.1392C7.37784 11.1392 9.0483 9.90625 9.42614 7.81818H8.19318C7.89489 9.23011 6.68182 9.9858 5.32955 9.9858C3.48011 9.9858 2.02841 8.55398 2.02841 5.90909C2.02841 3.2642 3.48011 1.83239 5.32955 1.83239C6.68182 1.83239 7.89489 2.58807 8.19318 4H9.42614ZM14.3617 11.1591C16.052 11.1591 17.1657 10.125 17.3645 8.77273H16.1912C15.9725 9.60795 15.2765 10.1051 14.3617 10.1051C12.9696 10.1051 12.0748 8.9517 12.0748 7.18182C12.0748 5.4517 12.9895 4.31818 14.3617 4.31818C15.3958 4.31818 16.0123 4.95455 16.1912 5.65057H17.3645C17.1657 4.21875 15.9526 3.2642 14.3418 3.2642C12.2736 3.2642 10.9015 4.89489 10.9015 7.22159C10.9015 9.50852 12.214 11.1591 14.3617 11.1591ZM20.253 6.12784V3.36364H19.0797V11H22.2814C24.0712 11 25.0456 9.90625 25.0456 8.53409C25.0456 7.14205 24.0712 6.12784 22.2814 6.12784H20.253ZM26.2587 11H27.432V3.36364H26.2587V11ZM20.253 7.22159H22.2814C23.2111 7.22159 23.8723 7.78835 23.8723 8.59375C23.8723 9.36435 23.2111 9.90625 22.2814 9.90625H20.253V7.22159ZM28.9036 11H29.3013C30.9917 11 31.4789 9.6875 31.5882 7.18182L31.7076 4.45739H34.5115V11H35.6848V3.36364H30.5939L30.4547 6.74432C30.3553 9.30966 30.0968 9.90625 29.182 9.90625H28.9036V11ZM37.8375 11H39.0108V7.77841H40.0648L42.5705 11H44.0819L40.9597 7.04261L44.0421 3.36364H42.5307L39.7864 6.68466H39.0108V3.36364H37.8375V11ZM47.6042 11.179C48.9366 11.179 49.6326 10.4631 49.8713 9.96591H49.9309V11H51.1042V5.96875C51.1042 3.54261 49.2548 3.2642 48.2804 3.2642C47.127 3.2642 45.8145 3.66193 45.2179 5.05398L46.3315 5.4517C46.59 4.89489 47.2015 4.2983 48.3201 4.2983C49.399 4.2983 49.9309 4.87003 49.9309 5.84943V5.8892C49.9309 6.45597 49.3542 6.40625 47.9622 6.58523C46.5453 6.76918 44.9991 7.08239 44.9991 8.83239C44.9991 10.3239 46.1525 11.179 47.6042 11.179ZM47.7832 10.125C46.8485 10.125 46.1724 9.70739 46.1724 8.89205C46.1724 7.99716 46.9877 7.71875 47.9025 7.59943C48.3997 7.53977 49.7321 7.40057 49.9309 7.16193V8.2358C49.9309 9.19034 49.1752 10.125 47.7832 10.125ZM58.3565 3.36364H57.1832V11H58.3565V7.73864H62.0156V11H63.1889V3.36364H62.0156V6.64489H58.3565V3.36364ZM67.5788 11.179C68.9112 11.179 69.6072 10.4631 69.8459 9.96591H69.9055V11H71.0788V5.96875C71.0788 3.54261 69.2294 3.2642 68.255 3.2642C67.1016 3.2642 65.7891 3.66193 65.1925 5.05398L66.3061 5.4517C66.5646 4.89489 67.1761 4.2983 68.2947 4.2983C69.3736 4.2983 69.9055 4.87003 69.9055 5.84943V5.8892C69.9055 6.45597 69.3288 6.40625 67.9368 6.58523C66.5199 6.76918 64.9737 7.08239 64.9737 8.83239C64.9737 10.3239 66.1271 11.179 67.5788 11.179ZM67.7578 10.125C66.8232 10.125 66.147 9.70739 66.147 8.89205C66.147 7.99716 66.9624 7.71875 67.8771 7.59943C68.3743 7.53977 69.7067 7.40057 69.9055 7.16193V8.2358C69.9055 9.19034 69.1499 10.125 67.7578 10.125ZM77.1578 11H78.3311V7.77841H79.3851L81.8908 11H83.4022L80.28 7.04261L83.3624 3.36364H81.851L79.1067 6.68466H78.3311V3.36364H77.1578V11ZM86.9245 11.179C88.2569 11.179 88.9529 10.4631 89.1916 9.96591H89.2512V11H90.4245V5.96875C90.4245 3.54261 88.5751 3.2642 87.6007 3.2642C86.4473 3.2642 85.1348 3.66193 84.5382 5.05398L85.6518 5.4517C85.9103 4.89489 86.5218 4.2983 87.6404 4.2983C88.7193 4.2983 89.2512 4.87003 89.2512 5.84943V5.8892C89.2512 6.45597 88.6745 6.40625 87.2825 6.58523C85.8656 6.76918 84.3194 7.08239 84.3194 8.83239C84.3194 10.3239 85.4728 11.179 86.9245 11.179ZM87.1035 10.125C86.1689 10.125 85.4927 9.70739 85.4927 8.89205C85.4927 7.99716 86.3081 7.71875 87.2228 7.59943C87.72 7.53977 89.0524 7.40057 89.2512 7.16193V8.2358C89.2512 9.19034 88.4956 10.125 87.1035 10.125ZM92.5661 13.8636H93.7393V9.8267H93.8388C94.0973 10.2443 94.5945 11.1591 96.0661 11.1591C97.9751 11.1591 99.3075 9.62784 99.3075 7.2017C99.3075 4.79545 97.9751 3.2642 96.0462 3.2642C94.5547 3.2642 94.0973 4.17898 93.8388 4.5767H93.6996V3.36364H92.5661V13.8636ZM93.7195 7.18182C93.7195 5.47159 94.4751 4.31818 95.907 4.31818C97.3984 4.31818 98.1342 5.57102 98.1342 7.18182C98.1342 8.8125 97.3786 10.1051 95.907 10.1051C94.495 10.1051 93.7195 8.91193 93.7195 7.18182ZM100.099 4.45739H102.625V11H103.798V4.45739H106.304V3.36364H100.099V4.45739ZM109.189 9.26989V3.36364H108.015V11H109.387L113.047 5.09375V11H114.22V3.36364H112.868L109.189 9.26989ZM117.542 3.36364H116.369V11H117.542V7.73864H121.201V11H122.374V3.36364H121.201V6.64489H117.542V3.36364ZM124.517 11H125.691V7.77841H126.744L129.25 11H130.762L127.639 7.04261L130.722 3.36364H129.21L126.466 6.68466H125.691V3.36364H124.517V11ZM132.792 13.8438C133.851 13.8438 134.602 13.282 135.04 12.1136L138.291 3.38352L137.008 3.36364L134.9 9.44886H134.821L132.713 3.36364H131.44L134.264 11.0398L134.045 11.6364C133.628 12.7798 133.091 12.8892 132.236 12.6705L131.937 13.7045C132.057 13.7642 132.395 13.8438 132.792 13.8438Z" fill="#C4C4C4"/>
</svg>
